<svg width="21" height="20" viewBox="0 0 21 20" fill="none" xmlns="http://www.w3.org/2000/svg">
<path d="M13.8464 6.6665V9.1665C13.8464 9.62674 13.4733 9.99984 13.013 9.99984H7.17969C6.71946 9.99984 6.34636 10.3729 6.34636 10.8332M6.34636 10.8332V6.6665M6.34636 10.8332V13.3332M8.63803 4.58317C8.63803 5.84882 7.61201 6.87484 6.34636 6.87484C5.08071 6.87484 4.05469 5.84882 4.05469 4.58317C4.05469 3.31752 5.08071 2.2915 6.34636 2.2915C7.61201 2.2915 8.63803 3.31752 8.63803 4.58317ZM16.138 4.58317C16.138 5.84882 15.112 6.87484 13.8464 6.87484C12.5807 6.87484 11.5547 5.84882 11.5547 4.58317C11.5547 3.31752 12.5807 2.2915 13.8464 2.2915C15.112 2.2915 16.138 3.31752 16.138 4.58317ZM8.63803 15.4165C8.63803 16.6822 7.61201 17.7082 6.34636 17.7082C5.08071 17.7082 4.05469 16.6822 4.05469 15.4165C4.05469 14.1509 5.08071 13.1248 6.34636 13.1248C7.61201 13.1248 8.63803 14.1509 8.63803 15.4165Z" stroke="#20262A" stroke-width="1.5" stroke-linejoin="round"/>
</svg>
