<svg width="20" height="20" viewBox="0 0 20 20" fill="none" xmlns="http://www.w3.org/2000/svg">
<path d="M8.33464 3.33398H3.33464C2.40964 3.33398 1.66797 4.07565 1.66797 5.00065V15.0007C1.66797 15.9148 2.42047 16.6673 3.33464 16.6673H16.668C17.5821 16.6673 18.3346 15.9148 18.3346 15.0007V6.66732C18.3346 6.22529 18.159 5.80137 17.8465 5.48881C17.5339 5.17625 17.11 5.00065 16.668 5.00065H10.0013L8.33464 3.33398Z" fill="#E2E8FF" fill-opacity="0.24"/>
<path fill-rule="evenodd" clip-rule="evenodd" d="M9.55859 8.68437H10.6336V7.60938C10.0419 7.60938 9.55859 8.09271 9.55859 8.68437ZM9.55859 12.9827H10.6336V11.9077H9.55859V12.9827ZM11.7086 17.2827H12.7836V16.2077H11.7086V17.2827ZM9.55859 10.8327H10.6336V9.75937H9.55859V10.8327ZM14.9336 7.60938H13.8578V8.68437H14.9328L14.9336 7.60938ZM18.1578 7.60938V8.68437H19.2319C19.2319 8.09271 18.7495 7.60938 18.1578 7.60938ZM10.6336 17.2827V16.2077H9.55859C9.55859 16.7994 10.0419 17.2827 10.6336 17.2827ZM9.55859 15.1327H10.6336V14.0594H9.55859V15.1327ZM12.7836 7.60938H11.7086V8.68437H12.7836V7.60938ZM13.8578 17.2827H14.9328V16.2077H13.8578V17.2827ZM18.1578 12.9835H19.2319V11.9085H18.1569L18.1578 12.9835ZM18.1578 17.2827C18.7478 17.2827 19.2319 16.7994 19.2319 16.2077H18.1569L18.1578 17.2827ZM18.1578 10.8335H19.2319V9.75937H18.1569L18.1578 10.8335ZM18.1578 15.1327H19.2319V14.0594H18.1569L18.1578 15.1327ZM16.0078 17.2827H17.0828V16.2077H16.0078V17.2827ZM16.0078 8.68437H17.0828V7.60938H16.0078V8.68437ZM11.7086 15.1327H17.0828V9.75937H11.7078L11.7086 15.1327ZM12.7836 10.8344H16.0078V14.0585H12.7836V10.8344Z" fill="#E2E8FF" fill-opacity="0.75"/>
</svg>
