<svg width="20" height="20" viewBox="0 0 20 20" fill="none" xmlns="http://www.w3.org/2000/svg">
<path d="M8.33464 3.33398H3.33464C2.40964 3.33398 1.66797 4.07565 1.66797 5.00065V15.0007C1.66797 15.9148 2.42047 16.6673 3.33464 16.6673H16.668C17.5821 16.6673 18.3346 15.9148 18.3346 15.0007V6.66732C18.3346 6.22529 18.159 5.80137 17.8465 5.48881C17.5339 5.17625 17.11 5.00065 16.668 5.00065H10.0013L8.33464 3.33398Z" fill="#E2E8FF" fill-opacity="0.24"/>
<path fill-rule="evenodd" clip-rule="evenodd" d="M18.0898 9.68164H10.4232C9.89568 9.68164 9.46984 10.1125 9.46984 10.64L9.46484 19.265L11.3815 17.3483H18.0898C18.6165 17.3483 19.0482 16.9166 19.0482 16.39V10.64C19.0482 10.1125 18.6165 9.68164 18.0898 9.68164ZM14.7357 15.4316H13.7773V14.4733H14.7357V15.4316ZM14.7357 13.515H13.7773V11.5983H14.7357V13.515Z" fill="#E2E8FF" fill-opacity="0.75"/>
</svg>
