<svg width="17" height="13" viewBox="0 0 17 13" fill="none" xmlns="http://www.w3.org/2000/svg">
<path d="M9.61806 11H1.13154C0.831437 11 0.543621 10.8551 0.331417 10.5972C0.119212 10.3393 0 9.98963 0 9.62498V1.375C0 0.611876 0.503538 0 1.13154 0H4.52616L5.6577 1.375H9.61806C10.2387 1.375 10.7496 1.99581 10.7496 2.74999H1.13154V9.62498L2.34229 4.12499H12L10.71 9.96875C10.5799 10.5669 10.1386 11 9.61806 11Z" fill="#E2E8FF" fill-opacity="0.24"/>
<path d="M10.2253 13C10.1852 12.9998 10.1453 12.9946 10.1064 12.9846C9.96306 12.9394 9.84086 12.8387 9.76408 12.7027C9.68731 12.5667 9.66139 12.405 9.69148 12.2497L11.2404 3.50281C11.2543 3.41933 11.284 3.33968 11.3276 3.26866C11.3713 3.19763 11.428 3.13668 11.4944 3.08947C11.5527 3.04869 11.6182 3.02102 11.6869 3.00819C11.7556 2.99535 11.8261 2.99763 11.8939 3.01486C12.0375 3.06012 12.1599 3.16079 12.2369 3.29701C12.3138 3.43322 12.3399 3.59508 12.3098 3.75063L10.7568 12.4975C10.7431 12.5808 10.7138 12.6602 10.6704 12.7311C10.627 12.802 10.5705 12.8628 10.5044 12.91C10.4216 12.9681 10.3246 12.9994 10.2253 13ZM13.3305 11.7609H13.2917C13.2163 11.7537 13.1433 11.7295 13.0775 11.69C13.0117 11.6506 12.9546 11.5967 12.9099 11.532C12.8222 11.4045 12.7797 11.2483 12.79 11.0909C12.8004 10.9335 12.8629 10.7851 12.9665 10.6718L15.6293 7.9123L12.9779 5.3439C12.8712 5.234 12.8046 5.08777 12.7897 4.93084C12.775 4.77392 12.8129 4.61651 12.897 4.4864C12.9402 4.41973 12.9963 4.36359 13.0615 4.32175C13.1268 4.2799 13.1997 4.2533 13.2755 4.24372C13.3488 4.23542 13.4229 4.24392 13.4928 4.26862C13.5628 4.29333 13.6268 4.33367 13.6808 4.38692L16.8078 7.41743C16.9147 7.52713 16.9816 7.67335 16.9968 7.83028C17.0118 7.98721 16.9741 8.14466 16.8903 8.27504C16.8667 8.31105 16.8395 8.34439 16.8094 8.37444L13.6953 11.6014C13.5982 11.7034 13.4672 11.7601 13.3305 11.7609ZM8.66824 11.7626C8.53109 11.7613 8.39976 11.7032 8.3026 11.6005L5.18609 8.37187C5.12674 8.30971 5.0797 8.23552 5.04774 8.15371C5.01578 8.07201 4.99955 7.98423 5.00001 7.89573C5.00047 7.80723 5.01759 7.71976 5.05038 7.63837C5.08316 7.55697 5.13096 7.48329 5.19094 7.42175L8.31881 4.39207C8.37161 4.33859 8.4348 4.29793 8.50401 4.2729C8.57312 4.24788 8.6465 4.23909 8.7192 4.24715C8.87285 4.26601 9.01116 4.35434 9.09939 4.48983C9.18384 4.62009 9.22208 4.77783 9.20723 4.93517C9.19238 5.0924 9.1256 5.23904 9.01844 5.34905L6.36865 7.91569L9.03145 10.6735C9.24742 10.9051 9.27168 11.273 9.08881 11.5336C9.04416 11.5985 8.98699 11.6526 8.92099 11.6921C8.85499 11.7316 8.7817 11.7556 8.70629 11.7626H8.66824Z" fill="#E2E8FF" fill-opacity="0.75"/>
</svg>
