<svg width="20" height="20" viewBox="0 0 20 20" fill="none" xmlns="http://www.w3.org/2000/svg">
<path d="M8.33464 3.33203H3.33464C2.40964 3.33203 1.66797 4.0737 1.66797 4.9987V14.9987C1.66797 15.9129 2.42047 16.6654 3.33464 16.6654H16.668C17.5821 16.6654 18.3346 15.9129 18.3346 14.9987V6.66536C18.3346 6.22334 18.159 5.79941 17.8465 5.48685C17.5339 5.17429 17.11 4.9987 16.668 4.9987H10.0013L8.33464 3.33203Z" fill="#E2E8FF" fill-opacity="0.24"/>
<path fill-rule="evenodd" clip-rule="evenodd" d="M13.9142 6.51953C12.4121 6.51953 10.9715 7.11618 9.90929 8.17823C8.84708 9.24029 8.25022 10.6808 8.25 12.1829C8.25087 13.3726 8.62537 14.5321 9.32065 15.4975C10.0159 16.463 10.9969 17.1857 12.125 17.5637C12.4083 17.6087 12.4983 17.4337 12.4983 17.2804V16.3237C10.9292 16.6629 10.595 15.5645 10.595 15.5645C10.335 14.9079 9.96667 14.7312 9.96667 14.7312C9.45083 14.3812 10.0058 14.392 10.0058 14.392C10.5725 14.432 10.8725 14.9754 10.8725 14.9754C11.3658 15.8362 12.1975 15.5812 12.5208 15.4454C12.5717 15.077 12.7192 14.8287 12.8775 14.687C11.62 14.5454 10.3008 14.0579 10.3008 11.9004C10.3008 11.2712 10.5158 10.767 10.8842 10.3654C10.8275 10.2237 10.6292 9.63453 10.9408 8.86953C10.9408 8.86953 11.4158 8.71703 12.4983 9.44786C12.9458 9.32286 13.4325 9.26036 13.915 9.26036C14.3975 9.26036 14.8825 9.32286 15.33 9.44786C16.4117 8.71703 16.8883 8.86953 16.8883 8.86953C17.1992 9.63453 17.0008 10.2237 16.9442 10.3654C17.3125 10.767 17.5275 11.2712 17.5275 11.9004C17.5275 14.0637 16.2025 14.5395 14.9392 14.6812C15.1433 14.8562 15.3308 15.202 15.3308 15.7287V17.2804C15.3308 17.4337 15.4208 17.6145 15.71 17.5637C16.8368 17.1845 17.8162 16.4612 18.5102 15.4959C19.2042 14.5306 19.5778 13.3718 19.5783 12.1829C19.5781 10.6808 18.9813 9.24029 17.919 8.17823C16.8568 7.11618 15.4163 6.51953 13.9142 6.51953Z" fill="#E2E8FF" fill-opacity="0.75"/>
</svg>
