<svg width="20" height="20" viewBox="0 0 20 20" fill="none" xmlns="http://www.w3.org/2000/svg">
<path d="M8.33464 3.33398H3.33464C2.40964 3.33398 1.66797 4.07565 1.66797 5.00065V15.0007C1.66797 15.9148 2.42047 16.6673 3.33464 16.6673H16.668C17.5821 16.6673 18.3346 15.9148 18.3346 15.0007V6.66732C18.3346 6.22529 18.159 5.80137 17.8465 5.48881C17.5339 5.17625 17.11 5.00065 16.668 5.00065H10.0013L8.33464 3.33398Z" fill="#E2E8FF" fill-opacity="0.24"/>
<path fill-rule="evenodd" clip-rule="evenodd" d="M11.0952 9.80555H10.1602V16.3514C10.1602 16.8664 10.5802 17.2872 11.0952 17.2872H17.641V16.3505H11.0952V9.80555ZM18.5768 7.93555H12.9652C12.4518 7.93555 12.0302 8.35555 12.0302 8.87055V14.4814C12.0302 14.9964 12.4518 15.4164 12.9652 15.4164H18.5768C19.091 15.4164 19.5118 14.9964 19.5118 14.4814V8.87055C19.5118 8.35555 19.091 7.93555 18.5768 7.93555ZM18.1093 12.1439H16.2385V14.0139H15.3035V12.1439H13.4335V11.208H15.3035V9.33805H16.2385V11.208H18.1093V12.1439Z" fill="#E2E8FF" fill-opacity="0.75"/>
</svg>
