<svg width="21" height="20" viewBox="0 0 21 20" fill="none" xmlns="http://www.w3.org/2000/svg">
<path d="M18.1611 10C18.1611 5.70312 15.0014 3.125 10.0361 3.125C5.07085 3.125 1.91113 5.70312 1.91113 10C1.91113 11.114 2.67825 13.0046 2.79821 13.2935C2.80898 13.3194 2.81964 13.3431 2.8293 13.3694C2.91187 13.5947 3.25048 14.7939 1.91113 16.569C3.71669 17.4284 5.63418 16.0156 5.63418 16.0156C6.96082 16.7164 8.53933 16.875 10.0361 16.875C15.0014 16.875 18.1611 14.2969 18.1611 10Z" stroke="#20262A" stroke-width="1.5" stroke-linecap="square" stroke-linejoin="round"/>
<path d="M5.61963 10.0002C5.61963 10.3684 5.91811 10.6668 6.2863 10.6668C6.65449 10.6668 6.95297 10.3684 6.95297 10.0002C6.95297 9.63197 6.65449 9.3335 6.2863 9.3335C5.91811 9.3335 5.61963 9.63197 5.61963 10.0002ZM9.36963 10.0002C9.36963 10.3684 9.66811 10.6668 10.0363 10.6668C10.4045 10.6668 10.703 10.3684 10.703 10.0002C10.703 9.63197 10.4045 9.3335 10.0363 9.3335C9.66811 9.3335 9.36963 9.63197 9.36963 10.0002ZM13.1196 10.0002C13.1196 10.3684 13.4181 10.6668 13.7863 10.6668C14.1545 10.6668 14.453 10.3684 14.453 10.0002C14.453 9.63197 14.1545 9.3335 13.7863 9.3335C13.4181 9.3335 13.1196 9.63197 13.1196 10.0002Z" fill="#20262A" stroke="#20262A" stroke-width="0.5" stroke-linecap="square"/>
</svg>
