<svg width="20" height="20" viewBox="0 0 20 20" fill="none" xmlns="http://www.w3.org/2000/svg">
<path fill-rule="evenodd" clip-rule="evenodd" d="M10.8334 5.8335C11.1786 5.8335 11.4584 6.11332 11.4584 6.4585C11.4584 8.48 11.905 9.79288 12.7229 10.6107C13.5407 11.4286 14.8536 11.8752 16.8751 11.8752C17.2203 11.8752 17.5001 12.155 17.5001 12.5002C17.5001 12.8453 17.2203 13.1252 16.8751 13.1252C14.8536 13.1252 13.5407 13.5717 12.7229 14.3896C11.905 15.2074 11.4584 16.5203 11.4584 18.5418C11.4584 18.887 11.1786 19.1668 10.8334 19.1668C10.4883 19.1668 10.2084 18.887 10.2084 18.5418C10.2084 16.5203 9.76184 15.2074 8.94399 14.3896C8.12614 13.5717 6.81325 13.1252 4.79175 13.1252C4.44657 13.1252 4.16675 12.8453 4.16675 12.5002C4.16675 12.155 4.44657 11.8752 4.79175 11.8752C6.81325 11.8752 8.12614 11.4286 8.94399 10.6107C9.76184 9.79288 10.2084 8.48 10.2084 6.4585C10.2084 6.11332 10.4883 5.8335 10.8334 5.8335ZM10.8334 10.0073C10.5826 10.5746 10.2507 11.0718 9.82787 11.4946C9.40502 11.9175 8.90782 12.2494 8.34057 12.5002C8.90782 12.751 9.40502 13.0829 9.82787 13.5057C10.2507 13.9286 10.5826 14.4258 10.8334 14.993C11.0842 14.4258 11.4161 13.9286 11.839 13.5057C12.2618 13.0829 12.759 12.751 13.3263 12.5002C12.759 12.2494 12.2618 11.9175 11.839 11.4946C11.4161 11.0718 11.0842 10.5746 10.8334 10.0073Z" fill="#20262A"/>
<path d="M5.00008 4.58366C5.00008 4.35354 4.81353 4.16699 4.58341 4.16699C4.3533 4.16699 4.16675 4.35354 4.16675 4.58366C4.16675 5.40085 3.98574 5.89416 3.68983 6.19007C3.39392 6.48598 2.90061 6.66699 2.08341 6.66699C1.8533 6.66699 1.66675 6.85354 1.66675 7.08366C1.66675 7.31377 1.8533 7.50032 2.08341 7.50032C2.90061 7.50032 3.39392 7.68133 3.68983 7.97724C3.98574 8.27315 4.16675 8.76646 4.16675 9.58366C4.16675 9.81377 4.3533 10.0004 4.58341 10.0004C4.81353 10.0004 5.00008 9.81377 5.00008 9.58366C5.00008 8.76646 5.18109 8.27315 5.477 7.97724C5.77291 7.68133 6.26622 7.50032 7.08341 7.50032C7.31353 7.50032 7.50008 7.31377 7.50008 7.08366C7.50008 6.85354 7.31353 6.66699 7.08341 6.66699C6.26622 6.66699 5.77291 6.48598 5.477 6.19007C5.18109 5.89416 5.00008 5.40085 5.00008 4.58366Z" fill="#20262A"/>
<path d="M9.16675 1.25016C9.16675 1.02004 8.9802 0.833496 8.75008 0.833496C8.51996 0.833496 8.33341 1.02004 8.33341 1.25016C8.33341 1.778 8.21606 2.06298 8.05615 2.2229C7.89623 2.38281 7.61126 2.50016 7.08341 2.50016C6.8533 2.50016 6.66675 2.68671 6.66675 2.91683C6.66675 3.14695 6.8533 3.3335 7.08341 3.3335C7.61126 3.3335 7.89623 3.45085 8.05615 3.61076C8.21606 3.77068 8.33341 4.05566 8.33341 4.5835C8.33341 4.81361 8.51996 5.00016 8.75008 5.00016C8.9802 5.00016 9.16675 4.81361 9.16675 4.5835C9.16675 4.05566 9.2841 3.77068 9.44401 3.61076C9.60393 3.45085 9.88891 3.3335 10.4168 3.3335C10.6469 3.3335 10.8334 3.14695 10.8334 2.91683C10.8334 2.68671 10.6469 2.50016 10.4168 2.50016C9.88891 2.50016 9.60393 2.38281 9.44401 2.2229C9.2841 2.06298 9.16675 1.778 9.16675 1.25016Z" fill="#20262A"/>
</svg>
