<svg width="76" height="47" viewBox="0 0 76 47" fill="none" xmlns="http://www.w3.org/2000/svg">
<g clip-path="url(#clip0_28_1939)">
<g clip-path="url(#clip1_28_1939)">
<path d="M42.8851 1.04471C41.3552 0.557941 39.6863 0.279785 37.9826 0.279785C33.0801 0.279785 28.6644 2.50503 25.709 6.01675L33.2887 12.3796L42.8851 1.04471Z" fill="#1A73E8"/>
<path d="M25.7092 6.0166C23.3796 8.79816 21.9541 12.4142 21.9541 16.3084C21.9541 19.3333 22.5452 21.7672 23.5535 23.9576L33.2889 12.3794L25.7092 6.0166Z" fill="#EA4335"/>
<path d="M38.0177 10.1893C41.4251 10.1893 44.1719 12.9361 44.1719 16.3435C44.1719 17.8386 43.6156 19.2294 42.7116 20.3072C42.7116 20.3072 47.5445 14.5355 52.2732 8.93759C50.3261 5.18249 46.9535 2.33139 42.8854 1.04492L33.2891 12.3798C34.4365 11.0585 36.1054 10.1893 38.0177 10.1893Z" fill="#4285F4"/>
<path d="M38.0178 22.4625C34.6104 22.4625 31.8636 19.7158 31.8636 16.3083C31.8636 14.8133 32.3852 13.4225 33.2892 12.3794L23.5537 23.9576C25.2226 27.6432 28.0042 30.6334 30.8553 34.3537L42.7117 20.2721C41.5643 21.6281 39.8954 22.4625 38.0178 22.4625Z" fill="#FBBC04"/>
<path d="M42.5028 38.2482C47.8572 29.8687 54.081 26.0788 54.081 16.3434C54.081 13.6661 53.4204 11.1627 52.273 8.9375L30.855 34.354C31.759 35.5361 32.6978 36.8921 33.6018 38.2829C36.8701 43.3245 35.9661 46.3147 38.0523 46.3147C40.1384 46.3147 39.2344 43.2897 42.5028 38.2482Z" fill="#34A853"/>
</g>
</g>
<defs>
<clipPath id="clip0_28_1939">
<rect width="76" height="46" fill="white" transform="translate(0 0.279785)"/>
</clipPath>
<clipPath id="clip1_28_1939">
<rect width="32.0922" height="46" fill="white" transform="translate(21.9541 0.279785)"/>
</clipPath>
</defs>
</svg>
