<svg width="76" height="47" viewBox="0 0 76 47" fill="none" xmlns="http://www.w3.org/2000/svg">
<g clip-path="url(#clip0_28_1952)">
<path d="M14.5151 27.2263C14.7394 27.8216 15.05 28.3305 15.4468 28.7532C15.8436 29.1759 16.3137 29.4994 16.8572 29.7237C17.4006 29.948 17.9915 30.0601 18.6299 30.0601C19.251 30.0601 19.8333 29.9436 20.3767 29.7107C20.9202 29.4777 21.3946 29.15 21.8001 28.7273C22.2055 28.3046 22.5204 27.8 22.7447 27.2134C22.969 26.6268 23.0811 25.9713 23.0811 25.2466V14.0669H25.7984V32.1821H23.107V30.5C22.5031 31.1383 21.7914 31.63 20.9719 31.9751C20.1524 32.3201 19.2683 32.4927 18.3194 32.4927C17.3532 32.4927 16.4517 32.3244 15.615 31.988C14.7782 31.6516 14.0536 31.1729 13.4412 30.5517C12.8287 29.9306 12.3456 29.1845 11.992 28.3132C11.6383 27.442 11.4614 26.4716 11.4614 25.4018V14.0669H14.1787V25.2466C14.1787 25.9713 14.2908 26.6311 14.5151 27.2263ZM30.4822 14.0669V20.666C31.086 20.0622 31.7848 19.5835 32.5784 19.2297C33.372 18.876 34.2347 18.6992 35.1663 18.6992C36.1325 18.6992 37.0381 18.8803 37.8836 19.2426C38.7289 19.6049 39.4621 20.0966 40.0832 20.7178C40.7044 21.3389 41.1961 22.0721 41.5584 22.9174C41.9207 23.7629 42.1018 24.66 42.1018 25.6089C42.1018 26.5577 41.9207 27.4506 41.5584 28.2873C41.1961 29.1241 40.7044 29.853 40.0832 30.474C39.4621 31.0952 38.7289 31.5869 37.8836 31.9492C37.0381 32.3115 36.1324 32.4926 35.1663 32.4926C34.2346 32.4926 33.3677 32.3158 32.5655 31.9621C31.7632 31.6084 31.0602 31.1296 30.4563 30.5258V32.1821H27.8685V14.0669H30.4822ZM30.7798 27.3945C31.0127 27.9466 31.3362 28.4297 31.7503 28.8438C32.1643 29.2578 32.6474 29.5857 33.1995 29.8272C33.7516 30.0687 34.3468 30.1895 34.9852 30.1895C35.6063 30.1895 36.1928 30.0687 36.7449 29.8272C37.297 29.5857 37.7757 29.2579 38.1812 28.8438C38.5866 28.4298 38.9101 27.9466 39.1516 27.3945C39.3932 26.8425 39.5139 26.2473 39.5139 25.6089C39.5139 24.9705 39.3932 24.371 39.1516 23.8103C38.9101 23.2496 38.5866 22.7622 38.1812 22.3481C37.7757 21.9341 37.297 21.6106 36.7449 21.3777C36.1928 21.1448 35.6062 21.0283 34.9852 21.0283C34.3641 21.0283 33.7775 21.1448 33.2254 21.3777C32.6734 21.6107 32.1903 21.9341 31.7762 22.3481C31.3622 22.7622 31.0343 23.2496 30.7928 23.8103C30.5513 24.371 30.4305 24.9705 30.4305 25.6089C30.4304 26.2473 30.5469 26.8425 30.7798 27.3945ZM43.5767 22.9434C43.9217 22.1153 44.3962 21.3864 45 20.7566C45.6038 20.1269 46.3198 19.6309 47.1479 19.2686C47.9761 18.9063 48.8732 18.7252 49.8393 18.7252C50.7882 18.7252 51.6681 18.8977 52.479 19.2427C53.2899 19.5878 53.9886 20.0666 54.5752 20.6791C55.1618 21.2915 55.619 22.0161 55.9467 22.8529C56.2746 23.6896 56.4384 24.5997 56.4384 25.5831V26.4371H45.6987C45.785 26.972 45.9576 27.468 46.2163 27.9251C46.4752 28.3823 46.7986 28.7791 47.1868 29.1155C47.575 29.452 48.0149 29.7151 48.5066 29.9049C48.9983 30.0946 49.5202 30.1896 50.0723 30.1896C51.6423 30.1896 52.9104 29.5426 53.8765 28.2486L55.7657 29.646C55.1101 30.5259 54.2992 31.216 53.3331 31.7164C52.3669 32.2167 51.28 32.4668 50.0723 32.4668C49.0889 32.4668 48.1703 32.2942 47.3162 31.9492C46.4622 31.6042 45.7204 31.1211 45.0907 30.5C44.461 29.8789 43.965 29.15 43.6027 28.3132C43.2404 27.4765 43.0592 26.5664 43.0592 25.583C43.0591 24.6514 43.2316 23.7715 43.5767 22.9434ZM47.2127 21.9211C46.4794 22.5336 45.992 23.3488 45.7505 24.3667H53.7989C53.5746 23.3488 53.0958 22.5336 52.3626 21.9211C51.6293 21.3087 50.771 21.0025 49.7876 21.0025C48.8042 21.0025 47.9459 21.3087 47.2127 21.9211ZM61.3294 22.2187C60.7773 22.8226 60.5013 23.642 60.5013 24.6772V32.1822H57.8875V18.9839H60.4753V20.6143C60.8032 20.0795 61.2302 19.6567 61.7564 19.3462C62.2826 19.0356 62.908 18.8803 63.6326 18.8803H64.5384V21.313H63.4515C62.5888 21.313 61.8815 21.6149 61.3294 22.2187Z" fill="#010202"/>
</g>
<defs>
<clipPath id="clip0_28_1952">
<rect width="76" height="46" fill="white" transform="translate(0 0.279785)"/>
</clipPath>
</defs>
</svg>
