<svg width="76" height="47" viewBox="0 0 76 47" fill="none" xmlns="http://www.w3.org/2000/svg">
<g clip-path="url(#clip0_28_1922)">
<path d="M8.23018 24.7014H2.65073V30.5787H0V16.0791H2.65073V22.1549H8.23018V16.0791H10.8809V30.5787H8.23018V24.7014Z" fill="#253342"/>
<path d="M19.3542 25.893C19.3542 27.0992 18.3713 28.0821 17.1651 28.0821C15.9589 28.0821 14.976 27.0992 14.976 25.893V19.6831H12.4692V25.893C12.4692 28.4842 14.5789 30.5938 17.1701 30.5938C19.7612 30.5938 21.8709 28.4842 21.8709 25.893V19.6831H19.3641V25.893H19.3542Z" fill="#253342"/>
<path d="M37.969 20.3184C37.969 19.0426 38.813 18.6406 39.7361 18.6406C40.4807 18.6406 41.4637 19.2065 42.1041 19.8915L43.7471 17.9506C42.9231 16.8387 41.2601 16.0742 39.8951 16.0742C37.165 16.0742 35.1991 17.6726 35.1991 20.3184C35.1991 25.2277 41.2007 23.669 41.2007 26.419C41.2007 27.2678 40.3767 28.0124 39.4333 28.0124C37.9493 28.0124 37.4677 27.2827 36.7828 26.5183L34.9561 28.4145C36.1225 29.8491 37.5668 30.5788 39.2896 30.5788C41.8807 30.5788 43.9656 28.9606 43.9656 26.4389C43.9656 20.9835 37.9641 22.6812 37.9641 20.3184H37.969Z" fill="#253342"/>
<path d="M75.0942 28.2618C73.6099 28.2618 73.1881 27.6215 73.1881 26.6386V22.2853H75.4964V20.0763H73.1881V17.1675L70.6416 18.3092V27.1797C70.6416 29.4482 72.2053 30.5899 74.3545 30.5899C74.6773 30.5899 75.1191 30.57 75.3573 30.5105L75.9779 28.2221C75.6948 28.242 75.3773 28.2618 75.0942 28.2618Z" fill="#253342"/>
<path d="M28.92 19.753C27.674 19.753 26.8053 20.1154 25.9664 20.9394V16.1641H23.4497V25.0098C23.4497 28.3207 25.8423 30.5892 28.5328 30.5892C31.5211 30.5892 34.142 28.281 34.142 25.1686C34.142 22.0562 31.7245 19.748 28.915 19.748L28.92 19.753ZM28.9001 28.0576C27.3216 28.0576 26.0459 26.7819 26.0459 25.2034C26.0459 23.6248 27.3216 22.3491 28.9001 22.3491C30.4786 22.3491 31.7544 23.6248 31.7544 25.2034C31.7544 26.7819 30.4786 28.0576 28.9001 28.0576Z" fill="#253342"/>
<path d="M56.2411 25.0441C56.2411 21.9318 53.6202 19.6235 50.6319 19.6235C47.9414 19.6235 45.5488 21.892 45.5488 25.203V34.0487H48.0654V29.2734C48.9045 30.0974 49.7731 30.4598 51.019 30.4598C53.8285 30.4598 56.2461 28.1118 56.2461 25.0392L56.2411 25.0441ZM53.8534 25.0094C53.8534 26.5879 52.5778 27.8636 50.9993 27.8636C49.4205 27.8636 48.1448 26.5879 48.1448 25.0094C48.1448 23.4309 49.4205 22.1551 50.9993 22.1551C52.5778 22.1551 53.8534 23.4309 53.8534 25.0094Z" fill="#253342"/>
<path d="M64.372 19.4999V16.9733C65.0323 16.6606 65.4938 15.9954 65.4938 15.221V15.1615C65.4938 14.0942 64.6203 13.2156 63.548 13.2156H63.4886C62.4212 13.2156 61.5428 14.0893 61.5428 15.1615V15.221C61.5428 15.9954 62.0043 16.6655 62.6646 16.9733V19.4999C61.6815 19.6538 60.7831 20.0559 60.0437 20.6516L53.104 15.2508C53.1486 15.0771 53.1834 14.8934 53.1834 14.7048C53.1834 13.4936 52.2055 12.5107 50.9944 12.5107C49.7831 12.5107 48.8003 13.4886 48.8003 14.6998C48.8003 15.911 49.7781 16.8939 50.9892 16.8939C51.3864 16.8939 51.7489 16.7847 52.0714 16.601L58.8969 21.9124C58.316 22.791 57.9784 23.8384 57.9784 24.9702C57.9784 26.1019 58.3508 27.2486 58.9861 28.1471L56.9114 30.222C56.7474 30.1723 56.5788 30.1376 56.3951 30.1376C55.4021 30.1376 54.5932 30.9467 54.5932 31.9395C54.5932 32.9323 55.4021 33.7414 56.3951 33.7414C57.388 33.7414 58.1969 32.9323 58.1969 31.9395C58.1969 31.7608 58.1621 31.5871 58.1126 31.4233L60.1677 29.3682C61.1009 30.078 62.2624 30.5049 63.5234 30.5049C66.5861 30.5049 69.068 28.023 69.068 24.9602C69.068 22.1904 67.0326 19.8971 64.3769 19.49L64.372 19.4999ZM63.5234 27.8145C61.9548 27.8145 60.6791 26.5437 60.6791 24.9751C60.6791 23.4065 61.9498 22.1358 63.5234 22.1358C65.0969 22.1358 66.3628 23.4065 66.3628 24.9751C66.3628 26.5437 65.092 27.8145 63.5234 27.8145Z" fill="#EB6744"/>
</g>
<defs>
<clipPath id="clip0_28_1922">
<rect width="76" height="21.5385" fill="white" transform="translate(0 12.5107)"/>
</clipPath>
</defs>
</svg>
