<svg width="76" height="47" viewBox="0 0 76 47" fill="none" xmlns="http://www.w3.org/2000/svg">
<g clip-path="url(#clip0_28_1881)">
<g clip-path="url(#clip1_28_1881)">
<mask id="mask0_28_1881" style="mask-type:luminance" maskUnits="userSpaceOnUse" x="5" y="0" width="66" height="47">
<path d="M5.14014 0.400391H70.648V46.1596H5.14014V0.400391Z" fill="white"/>
</mask>
<g mask="url(#mask0_28_1881)">
<path fill-rule="evenodd" clip-rule="evenodd" d="M32.3403 5.40999C34.4549 3.20873 37.3979 1.84559 40.6492 1.84559C44.9843 1.84559 48.7414 4.25397 50.7644 7.84245C52.5602 7.03967 54.5052 6.62522 56.4723 6.62622C64.2754 6.62622 70.6094 13.0084 70.6094 20.8838C70.6094 28.7592 64.2754 35.1414 56.4723 35.1414C55.5186 35.1414 54.5889 35.0455 53.6786 34.8644C51.9084 38.0194 48.5246 40.1629 44.6712 40.1629C43.1024 40.166 41.5536 39.8101 40.1435 39.1224C38.3492 43.3371 34.1707 46.2994 29.3058 46.2994C24.2241 46.2994 19.9131 43.0963 18.2513 38.5926C17.5117 38.7487 16.7578 38.8272 16.0019 38.8267C9.95688 38.8267 5.06787 33.8654 5.06787 27.7722C5.06787 23.678 7.26913 20.1136 10.5349 18.1869C9.84205 16.5909 9.48543 14.8692 9.48724 13.1293C9.48724 6.09686 15.1951 0.413086 22.2276 0.413086C26.3459 0.413086 30.0307 2.37591 32.3427 5.42251" fill="#00A1E0"/>
</g>
<path fill-rule="evenodd" clip-rule="evenodd" d="M14.6147 24.1951C14.5736 24.3025 14.6294 24.3249 14.6427 24.344C14.7658 24.4331 14.8907 24.4976 15.016 24.5701C15.6855 24.9241 16.3165 25.0277 16.9764 25.0277C18.3203 25.0277 19.156 24.3124 19.156 23.1612V23.1386C19.156 22.0741 18.2119 21.6863 17.3304 21.4093L17.2151 21.372C16.548 21.1557 15.9724 20.9674 15.9724 20.5291V20.5067C15.9724 20.131 16.3095 19.854 16.8297 19.854C17.4077 19.854 18.0965 20.0464 18.5373 20.2899C18.5373 20.2899 18.6678 20.3742 18.7153 20.2483C18.741 20.1801 18.9657 19.5787 18.9898 19.5113C19.0153 19.4407 18.9705 19.3875 18.9245 19.3601C18.4188 19.0518 17.7204 18.8423 16.9978 18.8423L16.8637 18.8427C15.633 18.8427 14.7732 19.5869 14.7732 20.6514V20.6743C14.7732 21.7966 15.7221 22.1627 16.6084 22.4156L16.751 22.4599C17.3964 22.6583 17.9552 22.8308 17.9552 23.2835V23.3062C17.9552 23.7228 17.5915 24.0335 17.0087 24.0335C16.782 24.0335 16.0598 24.0297 15.2771 23.535C15.1824 23.4798 15.1285 23.4401 15.0555 23.3955C15.0169 23.3722 14.9206 23.33 14.8787 23.4562L14.6138 24.1932M34.2902 24.1932C34.249 24.3006 34.3049 24.323 34.3186 24.342C34.4412 24.4311 34.5667 24.4957 34.6919 24.5682C35.3615 24.9222 35.9925 25.0258 36.6524 25.0258C37.9962 25.0258 38.8319 24.3105 38.8319 23.1593V23.1366C38.8319 22.0721 37.8903 21.6844 37.0064 21.4074L36.891 21.3701C36.2239 21.1538 35.6483 20.9655 35.6483 20.5272V20.5048C35.6483 20.1291 35.9855 19.8521 36.5057 19.8521C37.0837 19.8521 37.7701 20.0445 38.2132 20.288C38.2132 20.288 38.3438 20.3723 38.3914 20.2463C38.417 20.1782 38.6419 19.5768 38.6636 19.5094C38.6894 19.4388 38.6443 19.3856 38.5986 19.3581C38.0928 19.0499 37.3944 18.8403 36.6719 18.8403L36.5375 18.8408C35.3068 18.8408 34.447 19.585 34.447 20.6495V20.6724C34.447 21.7947 35.3959 22.1608 36.2822 22.4136L36.4245 22.458C37.0724 22.6564 37.6287 22.8288 37.6287 23.2816V23.3043C37.6287 23.7209 37.2651 24.0316 36.6822 24.0316C36.4551 24.0316 35.7309 24.0277 34.9506 23.5331C34.856 23.4779 34.8006 23.4398 34.7288 23.3936C34.7045 23.3782 34.591 23.3339 34.5523 23.4543L34.2873 24.1913M47.7261 21.937C47.7261 22.5873 47.6047 23.1003 47.3672 23.4639C47.1302 23.8228 46.7724 23.9986 46.2738 23.9986C45.7753 23.9986 45.4189 23.8242 45.1852 23.4663C44.9499 23.1051 44.8312 22.5897 44.8312 21.9394C44.8312 21.2892 44.9507 20.7786 45.1852 20.4197C45.4184 20.0633 45.7729 19.8923 46.2738 19.8923C46.7748 19.8923 47.1312 20.065 47.3672 20.4197C47.6061 20.7786 47.7261 21.2892 47.7261 21.9394M48.8484 20.7328C48.7378 20.3595 48.5666 20.032 48.3378 19.7574C48.1088 19.4829 47.82 19.2613 47.4756 19.1024C47.1336 18.9422 46.729 18.8615 46.2714 18.8615C45.8138 18.8615 45.4116 18.9427 45.0672 19.1024C44.7252 19.2623 44.4338 19.4829 44.205 19.7574C43.9767 20.032 43.8052 20.3595 43.6945 20.7328C43.5849 21.1037 43.5292 21.5083 43.5292 21.9394C43.5292 22.3705 43.5849 22.7751 43.6945 23.146C43.8045 23.5193 43.9762 23.8469 44.205 24.1214C44.4341 24.396 44.7252 24.6151 45.0672 24.7717C45.4116 24.9277 45.8162 25.0072 46.2714 25.0072C46.7266 25.0072 47.1312 24.9277 47.4732 24.7717C47.8152 24.6156 48.1066 24.396 48.3354 24.1214C48.564 23.8469 48.7352 23.5193 48.846 23.146C48.9553 22.7751 49.0109 22.3705 49.0109 21.9394C49.0109 21.5107 48.9553 21.1037 48.846 20.7328M58.0701 23.8156C58.0332 23.7065 57.9268 23.7476 57.9268 23.7476C57.7637 23.81 57.5896 23.8678 57.4041 23.8967C57.2173 23.9261 57.0092 23.9408 56.79 23.9408C56.2481 23.9408 55.8146 23.7792 55.5063 23.4591C55.1957 23.1388 55.0223 22.6234 55.0247 21.925C55.0263 21.2892 55.18 20.8123 55.4558 20.4462C55.7279 20.085 56.147 19.8971 56.7009 19.8971C57.1633 19.8971 57.5173 19.9508 57.8882 20.0669C57.8882 20.0669 57.9761 20.1052 58.0183 19.9894C58.1168 19.7172 58.1895 19.5221 58.2952 19.2235C58.3251 19.138 58.2519 19.1019 58.2252 19.0915C58.0797 19.0347 57.7363 18.9415 57.4762 18.9022C57.2329 18.8651 56.9511 18.8459 56.6332 18.8459C56.1612 18.8459 55.7421 18.9266 55.3833 19.0865C55.0244 19.2461 54.721 19.467 54.4801 19.7415C54.2393 20.0161 54.0563 20.3436 53.9334 20.7169C53.8118 21.0878 53.7504 21.4948 53.7504 21.9259C53.7504 22.8556 54.0009 23.6094 54.497 24.1609C54.9931 24.7148 55.7397 24.9942 56.7127 24.9942C57.2883 24.9942 57.8784 24.8779 58.3022 24.71C58.3022 24.71 58.3831 24.671 58.348 24.5766L58.071 23.8156M60.0339 21.3108C60.0876 20.9496 60.1865 20.6485 60.3421 20.4149C60.575 20.0585 60.9298 19.8634 61.4283 19.8634C61.9268 19.8634 62.2568 20.0595 62.4928 20.4149C62.6493 20.6497 62.7177 20.9616 62.7433 21.3108L60.0218 21.3104L60.0339 21.3108ZM63.815 20.5161C63.7194 20.1572 63.4826 19.7936 63.3285 19.6274C63.0829 19.3649 62.8444 19.1794 62.606 19.0783C62.2618 18.9319 61.8915 18.8568 61.5174 18.8574C61.043 18.8574 60.6119 18.9376 60.2626 19.1007C59.9134 19.2649 59.6196 19.4884 59.3884 19.7678C59.1574 20.0472 58.9838 20.3771 58.873 20.7552C58.7622 21.1285 58.7064 21.538 58.7064 21.9666C58.7064 22.405 58.7644 22.812 58.8785 23.1805C58.9939 23.5514 59.1796 23.8765 59.4301 24.1462C59.6805 24.4184 60.0009 24.6303 60.3862 24.7796C60.7691 24.9277 61.2339 25.0046 61.7662 25.0029C62.8644 24.9993 63.4424 24.7548 63.6784 24.6224C63.7206 24.5988 63.7603 24.5581 63.7107 24.4408L63.4627 23.7448C63.4246 23.6409 63.3196 23.6785 63.3196 23.6785C63.0475 23.7802 62.6621 23.9627 61.759 23.9603C61.1689 23.9593 60.733 23.7852 60.4584 23.5123C60.1791 23.233 60.0394 22.826 60.0177 22.2479L63.8229 22.2508C63.8229 22.2508 63.9231 22.2499 63.9335 22.1521C63.9376 22.1116 64.0638 21.3718 63.8201 20.5168L63.815 20.5161ZM29.616 21.3108C29.6698 20.9496 29.769 20.6485 29.9243 20.4149C30.1575 20.0585 30.512 19.8634 31.0105 19.8634C31.509 19.8634 31.839 20.0595 32.075 20.4149C32.2313 20.6497 32.2997 20.9616 32.3255 21.3108L29.604 21.3104L29.616 21.3108ZM33.3972 20.5161C33.3018 20.1572 33.0648 19.7936 32.9107 19.6274C32.6651 19.3649 32.4266 19.1794 32.1882 19.0783C31.844 18.9319 31.4737 18.8568 31.0996 18.8574C30.6252 18.8574 30.1941 18.9376 29.8448 19.1007C29.4956 19.2649 29.2018 19.4884 28.9706 19.7678C28.7401 20.0472 28.566 20.3771 28.4552 20.7552C28.3447 21.1285 28.289 21.538 28.289 21.9666C28.289 22.405 28.3466 22.812 28.4615 23.1805C28.5766 23.5514 28.7625 23.8765 29.0106 24.1462C29.2611 24.4184 29.5814 24.6303 29.9667 24.7796C30.3496 24.9277 30.812 25.0046 31.3467 25.0029C32.4449 24.9993 33.0229 24.7548 33.259 24.6224C33.3009 24.5988 33.3408 24.5581 33.291 24.4408L33.0429 23.7448C33.0046 23.6409 32.8996 23.6785 32.8996 23.6785C32.6275 23.7802 32.2421 23.9627 31.339 23.9603C30.7514 23.9593 30.313 23.7852 30.0385 23.5123C29.7591 23.233 29.6194 22.826 29.5977 22.2479L33.403 22.2508C33.403 22.2508 33.5032 22.2499 33.5135 22.1521C33.5176 22.1116 33.6438 21.3718 33.3998 20.5168L33.3972 20.5161ZM21.4035 23.7915C21.2544 23.6725 21.2337 23.6434 21.1843 23.566C21.1089 23.4497 21.0704 23.2843 21.0704 23.0723C21.0704 22.74 21.1812 22.4991 21.41 22.3378C21.4076 22.3383 21.7375 22.0536 22.513 22.0632C22.8582 22.0694 23.2026 22.0988 23.5438 22.1511V23.8779H23.5443C23.5443 23.8779 23.0626 23.9817 22.5183 24.0145C21.7452 24.061 21.4032 23.792 21.4056 23.7927L21.4035 23.7915ZM22.9159 21.1182C22.7618 21.1069 22.5619 21.1013 22.3235 21.1013C21.9983 21.1013 21.6829 21.1418 21.389 21.2213C21.0928 21.3012 20.8255 21.425 20.5967 21.5897C20.3673 21.7534 20.1785 21.9677 20.0452 22.2159C19.9105 22.4664 19.8419 22.7602 19.8419 23.0926C19.8419 23.4297 19.9004 23.7211 20.016 23.9596C20.1293 24.1961 20.2998 24.4005 20.5121 24.5544C20.7234 24.7081 20.9842 24.8218 21.2852 24.8892C21.5839 24.9574 21.921 24.9918 22.2919 24.9918C22.6821 24.9918 23.0698 24.9591 23.4455 24.8957C23.7655 24.8405 24.0843 24.7785 24.4017 24.7098C24.5284 24.6806 24.669 24.6424 24.669 24.6424C24.7629 24.6185 24.7557 24.5181 24.7557 24.5181L24.7535 21.05C24.7535 20.289 24.5503 19.723 24.149 19.3738C23.7492 19.0246 23.164 18.8488 22.4054 18.8488C22.1212 18.8488 21.6612 18.8873 21.3866 18.9424C21.3866 18.9424 20.5581 19.1033 20.2162 19.3711C20.2162 19.3711 20.141 19.4174 20.182 19.5221L20.4517 20.2447C20.4852 20.3383 20.5764 20.3063 20.5764 20.3063C20.5764 20.3063 20.6051 20.295 20.6388 20.275C21.3686 19.8776 22.2934 19.8897 22.2934 19.8897C22.7028 19.8897 23.0207 19.9728 23.2326 20.1353C23.44 20.2945 23.5457 20.5351 23.5457 21.0409V21.2015C23.2206 21.1543 22.9196 21.1271 22.9196 21.1271L22.9159 21.1182ZM53.5023 19.1602C53.5078 19.1475 53.5107 19.1338 53.5108 19.12C53.5108 19.1061 53.5081 19.0924 53.5028 19.0797C53.4975 19.0669 53.4896 19.0553 53.4798 19.0457C53.4699 19.036 53.4581 19.0284 53.4453 19.0234C53.3805 18.9988 53.0575 18.9306 52.8094 18.9152C52.3326 18.8854 52.0677 18.9658 51.8292 19.0727C51.5937 19.1789 51.3331 19.3497 51.1886 19.5472L51.1881 19.0848C51.1881 19.0212 51.1431 18.9699 51.079 18.9699H50.106C50.0429 18.9699 49.9972 19.0212 49.9972 19.0848V24.7445C49.9972 24.775 50.0094 24.8043 50.031 24.826C50.0527 24.8476 50.082 24.8598 50.1125 24.8598H51.1096C51.1402 24.8598 51.1694 24.8476 51.191 24.826C51.2126 24.8043 51.2247 24.775 51.2247 24.7445V21.9026C51.2247 21.5221 51.2666 21.1439 51.3502 20.9055C51.4326 20.6697 51.5446 20.4816 51.6826 20.3468C51.8142 20.2165 51.9753 20.1199 52.1522 20.065C52.3182 20.0173 52.4901 19.9932 52.6628 19.9932C52.8615 19.9932 53.0794 20.0443 53.0794 20.0443C53.1526 20.0525 53.1933 20.0077 53.2181 19.9417C53.2834 19.768 53.4686 19.2481 53.5047 19.1445" fill="#FFFFFE"/>
<path fill-rule="evenodd" clip-rule="evenodd" d="M44.1899 16.5482C44.0666 16.511 43.9412 16.4812 43.8144 16.4591C43.6438 16.4306 43.471 16.4172 43.2981 16.4191C42.6109 16.4191 42.0693 16.6132 41.689 16.9966C41.3114 17.3772 41.0544 17.9569 40.9256 18.7196L40.8791 18.9771H40.0166C40.0166 18.9771 39.9114 18.9727 39.8892 19.0876L39.7476 19.8775C39.7378 19.9532 39.7703 20.0004 39.8714 19.9999H40.711L39.8591 24.7548C39.7924 25.1377 39.7161 25.4527 39.6315 25.6914C39.5482 25.9269 39.4668 26.1034 39.3666 26.2316C39.2696 26.3556 39.1776 26.4469 39.0189 26.5001C38.8878 26.5442 38.7371 26.5644 38.5719 26.5644C38.4799 26.5644 38.3575 26.549 38.2672 26.5309C38.1769 26.5131 38.1299 26.4929 38.0622 26.4645C38.0622 26.4645 37.9637 26.4269 37.925 26.5256C37.8934 26.6063 37.6697 27.2217 37.6432 27.2978C37.6162 27.3729 37.654 27.4321 37.7017 27.4492C37.8135 27.4892 37.8965 27.5148 38.0488 27.5506C38.2602 27.6005 38.4384 27.6036 38.6053 27.6036C38.955 27.6036 39.2737 27.5545 39.5379 27.4591C39.8037 27.363 40.0352 27.1956 40.2399 26.969C40.4612 26.7246 40.6004 26.4686 40.7336 26.1193C40.8654 25.7733 40.9776 25.3436 41.0674 24.8429L41.9234 19.9999H43.1747C43.1747 19.9999 43.2802 20.0037 43.3022 19.8893L43.4438 19.0994C43.4536 19.0238 43.4214 18.9766 43.3197 18.9771H42.1052C42.1112 18.9496 42.1664 18.5224 42.3058 18.1202C42.3653 17.9484 42.4773 17.81 42.5722 17.7148C42.6608 17.6242 42.7699 17.5563 42.8903 17.5169C43.0223 17.476 43.1599 17.4562 43.2981 17.4581C43.4125 17.4581 43.5247 17.4718 43.6102 17.4896C43.728 17.5147 43.7737 17.5279 43.8045 17.5371C43.9283 17.5749 43.9449 17.5383 43.9693 17.4783L44.2597 16.6807C44.2896 16.5949 44.2169 16.5588 44.1899 16.5482ZM27.2171 24.7649C27.2171 24.8284 27.1718 24.8802 27.1082 24.8802H26.1008C26.037 24.8802 25.9917 24.8284 25.9917 24.7649V16.6563C25.9917 16.593 26.037 16.5417 26.1008 16.5417H27.1082C27.1718 16.5417 27.2171 16.593 27.2171 16.6563V24.7649Z" fill="#FFFFFE"/>
</g>
</g>
<defs>
<clipPath id="clip0_28_1881">
<rect width="76" height="46" fill="white" transform="translate(0 0.279785)"/>
</clipPath>
<clipPath id="clip1_28_1881">
<rect width="65.7487" height="46" fill="white" transform="translate(5.12573 0.279785)"/>
</clipPath>
</defs>
</svg>
