<svg width="76" height="47" viewBox="0 0 76 47" fill="none" xmlns="http://www.w3.org/2000/svg">
<g clip-path="url(#clip0_28_1900)">
<path fill-rule="evenodd" clip-rule="evenodd" d="M6.63187 18.4077H11.8252C14.6135 18.4077 15.6632 19.8193 15.501 21.8932C15.2329 25.3169 13.1631 27.2111 10.4176 27.2111H9.03147C8.65477 27.2111 8.4014 27.4605 8.29952 28.1361L7.71102 32.0639C7.67214 32.3186 7.53809 32.4661 7.33701 32.4862H4.0741C3.76711 32.4862 3.65853 32.2516 3.73896 31.7435L5.72834 19.1517C5.80609 18.6477 6.08225 18.4077 6.63187 18.4077Z" fill="#009EE3"/>
<path fill-rule="evenodd" clip-rule="evenodd" d="M29.1782 18.1743C30.9304 18.1743 32.5471 19.1248 32.3259 21.4935C32.0578 24.3087 30.5496 25.8664 28.1701 25.8731H26.0909C25.792 25.8731 25.6472 26.1171 25.5695 26.6171L25.1673 29.1736C25.107 29.5596 24.9086 29.75 24.6163 29.75H22.6819C22.3736 29.75 22.2664 29.5529 22.3347 29.1119L23.9313 18.866C24.0104 18.362 24.1994 18.1743 24.544 18.1743H29.1742H29.1782ZM26.0279 23.6599H27.6031C28.5884 23.6223 29.2426 22.94 29.3083 21.7094C29.3485 20.9493 28.8351 20.405 28.0187 20.409L26.536 20.4157L26.0279 23.6599ZM37.5849 28.9658C37.7618 28.8049 37.9414 28.7218 37.916 28.9202L37.853 29.3947C37.8208 29.6427 37.9187 29.7741 38.1492 29.7741H39.8678C40.1574 29.7741 40.2981 29.6575 40.3692 29.2098L41.4282 22.5633C41.4818 22.2295 41.4001 22.0659 41.1467 22.0659H39.2565C39.0863 22.0659 39.0032 22.1611 38.9589 22.4212L38.8892 22.8301C38.853 23.0432 38.7552 23.0807 38.664 22.8663C38.3436 22.1075 37.5259 21.767 36.3851 21.7938C33.7348 21.8488 31.9478 23.8609 31.7561 26.4402C31.6087 28.4349 33.0377 30.002 34.9225 30.002C36.2899 30.002 36.9012 29.5999 37.5902 28.9698L37.5849 28.9658ZM36.1451 27.9429C35.0043 27.9429 34.2093 27.0327 34.3742 25.9174C34.5391 24.802 35.6062 23.8918 36.747 23.8918C37.8878 23.8918 38.6828 24.802 38.5179 25.9174C38.353 27.0327 37.2873 27.9429 36.1451 27.9429ZM44.7917 22.0445H43.049C42.6897 22.0445 42.5436 22.3126 42.6575 22.6424L44.8212 28.9778L42.6991 31.9927C42.5208 32.2448 42.6589 32.474 42.9095 32.474H44.8681C44.9822 32.4872 45.0978 32.4673 45.2009 32.4167C45.3041 32.366 45.3905 32.2868 45.4499 32.1885L52.1044 22.6437C52.3095 22.3501 52.213 22.0418 51.8765 22.0418H50.0225C49.7048 22.0418 49.5774 22.1678 49.3951 22.4319L46.6202 26.4536L45.3802 22.4225C45.3078 22.1785 45.1268 22.0445 44.793 22.0445H44.7917Z" fill="#113984"/>
<path fill-rule="evenodd" clip-rule="evenodd" d="M59.0275 18.1746C60.7796 18.1746 62.3963 19.125 62.1751 21.4938C61.907 24.3089 60.3989 25.8667 58.0194 25.8734H55.9415C55.6426 25.8734 55.4978 26.1173 55.4201 26.6174L55.0179 29.1738C54.9576 29.5599 54.7592 29.7502 54.4669 29.7502H52.5325C52.2242 29.7502 52.1169 29.5532 52.1853 29.1121L53.7846 18.8636C53.8637 18.3596 54.0527 18.1719 54.3972 18.1719H59.0275V18.1746ZM55.8772 23.6601H57.4523C58.4376 23.6226 59.0918 22.9402 59.1575 21.7096C59.1977 20.9495 58.6843 20.4052 57.8679 20.4093L56.3853 20.416L55.8772 23.6601ZM67.4341 28.966C67.6111 28.8051 67.7907 28.722 67.7652 28.9204L67.7022 29.395C67.67 29.643 67.7679 29.7744 67.9985 29.7744H69.7171C70.0066 29.7744 70.1474 29.6577 70.2184 29.21L71.2775 22.5635C71.3311 22.2297 71.2493 22.0662 70.996 22.0662H69.1085C68.9382 22.0662 68.8551 22.1614 68.8109 22.4214L68.7411 22.8303C68.7049 23.0434 68.6071 23.081 68.5159 22.8665C68.1955 22.1077 67.3778 21.7672 66.237 21.7941C63.5867 21.849 61.7998 23.8612 61.6081 26.4404C61.4606 28.4352 62.8896 30.0023 64.7744 30.0023C66.1418 30.0023 66.7531 29.6001 67.4421 28.97L67.4341 28.966ZM65.9957 27.9432C64.8549 27.9432 64.0599 27.0329 64.2248 25.9176C64.3897 24.8023 65.4568 23.892 66.5976 23.892C67.7384 23.892 68.5334 24.8023 68.3685 25.9176C68.2036 27.0329 67.1365 27.9432 65.9957 27.9432ZM73.9224 29.7851H71.9384C71.9038 29.7866 71.8694 29.7805 71.8375 29.7672C71.8057 29.7539 71.7771 29.7338 71.7539 29.7081C71.7308 29.6825 71.7135 29.6521 71.7035 29.6191C71.6934 29.586 71.6907 29.5512 71.6957 29.517L73.4384 18.4762C73.4551 18.4008 73.4967 18.3333 73.5566 18.2846C73.6165 18.236 73.6911 18.209 73.7682 18.2081H75.7522C75.7867 18.2065 75.8212 18.2126 75.853 18.2259C75.8849 18.2392 75.9135 18.2594 75.9367 18.285C75.9598 18.3106 75.9771 18.341 75.9871 18.3741C75.9972 18.4071 75.9998 18.442 75.9949 18.4762L74.2522 29.517C74.236 29.5928 74.1946 29.6609 74.1347 29.7102C74.0748 29.7594 73.9999 29.7867 73.9224 29.7878V29.7851Z" fill="#009EE3"/>
<path fill-rule="evenodd" clip-rule="evenodd" d="M3.38333 14.0737H8.582C10.0459 14.0737 11.7832 14.1206 12.9442 15.1462C13.7203 15.8312 14.1279 16.9211 14.034 18.0954C13.715 22.0648 11.3409 24.2887 8.1557 24.2887H5.59256C5.15554 24.2887 4.86732 24.5783 4.74399 25.3612L4.02814 29.9191C3.98122 30.214 3.85387 30.3883 3.62597 30.4097H0.418027C0.0627808 30.4097 -0.0632325 30.1416 0.0292657 29.5491L2.33502 14.9397C2.42752 14.3526 2.75059 14.0737 3.38333 14.0737Z" fill="#113984"/>
<path fill-rule="evenodd" clip-rule="evenodd" d="M4.81934 24.8986L5.72689 19.1516C5.80598 18.6476 6.08214 18.4062 6.63177 18.4062H11.8251C12.6844 18.4062 13.3801 18.5403 13.9244 18.7883C13.4029 22.322 11.1173 24.2846 8.12514 24.2846H5.56603C5.22284 24.2859 4.97082 24.4575 4.81934 24.8986Z" fill="#172C70"/>
</g>
<defs>
<clipPath id="clip0_28_1900">
<rect width="76" height="18.4125" fill="white" transform="translate(0 14.0737)"/>
</clipPath>
</defs>
</svg>
