<svg width="76" height="47" viewBox="0 0 76 47" fill="none" xmlns="http://www.w3.org/2000/svg">
<g clip-path="url(#clip0_28_1895)">
<g clip-path="url(#clip1_28_1895)">
<path d="M52.4624 32.838L48.648 30.322L45.4659 35.6373L41.765 34.5552L38.5064 39.5288L38.6734 41.0944L56.3909 37.8299L55.3618 26.7598L52.4624 32.838ZM35.9395 28.0652L38.7821 27.6743C39.2421 27.881 39.5622 27.9597 40.1137 28.1C40.9726 28.3238 41.9669 28.5385 43.4393 27.7964C43.782 27.6267 44.4957 26.974 44.7843 26.6018L56.4311 24.489L57.6192 38.8686L37.6663 42.4646L35.9395 28.0652ZM57.5742 22.8838L56.4246 23.1028L54.216 0.283691L16.5825 4.64747L21.2188 42.2713L25.6238 41.632C25.2721 41.1298 24.7243 40.522 23.7889 39.7441C22.4916 38.6662 22.9504 36.8356 23.7156 35.6796C24.7281 33.7263 29.9448 31.2441 29.6492 28.1219C29.5432 26.9868 29.3628 25.509 28.309 24.4965C28.2694 24.9168 28.3406 25.3216 28.3406 25.3216C28.3406 25.3216 27.908 24.7696 27.6922 24.0168C27.4781 23.7282 27.3099 23.6361 27.0824 23.2506C26.9201 23.6966 26.9415 24.2138 26.9415 24.2138C26.9415 24.2138 26.5876 23.3775 26.5303 22.6718C26.3204 22.9877 26.2674 23.5879 26.2674 23.5879C26.2674 23.5879 25.8075 22.2697 25.9124 21.5597C25.7026 20.9418 25.0804 19.7156 25.2565 16.9287C26.405 17.7335 28.9334 17.5423 29.9186 16.0902C30.2457 15.6094 30.4695 14.2965 29.7552 11.7098C29.2964 10.0511 28.1602 7.58111 27.7174 6.6441L27.6644 6.68212C27.8978 7.43708 28.3792 9.01982 28.5639 9.7871C29.1229 12.1146 29.2728 12.9247 29.0105 13.9977C28.7872 14.9305 28.2518 15.5409 26.8944 16.223C25.5371 16.9073 23.7359 15.2421 23.6219 15.15C22.3031 14.0995 21.2831 12.3856 21.169 11.553C21.0507 10.6416 21.6943 10.0944 22.0188 9.34911C21.5546 9.4819 21.0368 9.71749 21.0368 9.71749C21.0368 9.71749 21.6547 9.07818 22.4166 8.52508C22.732 8.31626 22.9172 8.18347 23.2497 7.90719C22.7684 7.89916 22.3775 7.91308 22.3775 7.91308C22.3775 7.91308 23.1801 7.47938 24.0122 7.16347C23.4034 7.1367 22.8209 7.15919 22.8209 7.15919C22.8209 7.15919 24.6119 6.35818 26.0265 5.77028C26.9994 5.37138 27.9498 5.48917 28.4836 6.26127C29.1845 7.2727 29.9207 7.82206 31.481 8.16259C32.4388 7.73799 32.7301 7.51954 33.9338 7.19185C34.9934 6.02675 35.8255 5.87576 35.8255 5.87576C35.8255 5.87576 35.4126 6.25431 35.3023 6.84917C35.9031 6.37585 36.5617 5.9807 36.5617 5.9807C36.5617 5.9807 36.3068 6.29554 36.0691 6.79563L36.1242 6.87755C36.8251 6.45724 37.6491 6.1258 37.6491 6.1258C37.6491 6.1258 37.4136 6.42351 37.1373 6.80902C37.6657 6.80473 38.7377 6.83151 39.1537 6.87862C41.6097 6.9327 42.1195 4.25554 43.0618 3.91982C44.2419 3.49843 44.7693 3.24357 46.7804 5.21878C48.5061 6.9145 49.8543 9.94987 49.1851 10.6299C48.6239 11.1942 47.5166 10.4098 46.2894 8.88007C45.641 8.06996 45.1506 7.11261 44.9209 5.89557C44.727 4.86861 43.9726 4.27267 43.9726 4.27267C43.9726 4.27267 44.4106 5.24609 44.4106 6.10599C44.4106 6.57557 44.4695 8.33125 45.2223 9.31645C45.1479 9.46048 45.1131 10.0291 45.0306 10.1378C44.1547 9.07925 42.2737 8.32162 41.9669 8.09834C43.0051 8.94914 45.3915 10.9035 46.3082 12.7764C47.175 14.5476 46.6642 16.1711 47.1028 16.5914C47.2275 16.7119 48.9671 18.8793 49.3018 19.9684C49.8854 21.8665 49.3366 23.861 48.5725 25.0984L46.4388 25.4309C46.1267 25.3441 45.9162 25.3007 45.6362 25.1385C45.7904 24.8654 46.0972 24.1844 46.1004 24.0441L45.9799 23.8326C45.316 24.7733 44.2034 25.6868 43.2792 26.2115C42.0697 26.8969 40.6754 26.7914 39.7679 26.5103C37.1919 25.7157 34.7562 23.975 34.1688 23.5178C34.1688 23.5178 34.1506 23.8829 34.2615 23.9648C34.9109 24.6973 36.3989 26.0225 37.8371 26.9461L34.7712 27.2835L36.2206 38.5693C35.5781 38.6614 35.478 38.7064 34.7744 38.8065C34.1544 36.6161 32.9684 35.1859 31.6721 34.3528C30.529 33.6182 28.9521 33.4527 27.4427 33.7515L27.3458 33.8639C28.3952 33.7547 29.6342 33.9068 30.907 34.7126C32.1561 35.5024 33.1627 37.5424 33.5333 38.7706C34.0077 40.3405 34.3359 42.0196 33.0589 43.7994C32.1502 45.0647 29.4977 45.7639 27.3549 44.2513C27.9273 45.1717 28.701 45.9246 29.7424 46.0665C31.2887 46.2763 32.7564 46.0081 33.7667 44.971C34.6293 44.0843 35.0866 42.2301 34.9661 40.2773L36.3309 40.0792L36.8235 43.5842L59.4177 40.8636L57.5742 22.8838ZM43.828 13.3654C43.7649 13.5094 43.6658 13.6037 43.8147 14.0722L43.8238 14.0989L43.8473 14.1594L43.9094 14.2997C44.1777 14.848 44.4722 15.3652 44.9642 15.6292C45.0917 15.6078 45.2234 15.5933 45.3599 15.5864C45.822 15.566 46.1138 15.6394 46.2991 15.739C46.3157 15.6469 46.3194 15.512 46.3092 15.3133C46.2734 14.6188 46.4468 13.4377 45.112 12.816C44.6082 12.5821 43.9014 12.6543 43.6658 12.9462C43.7086 12.9515 43.7472 12.9606 43.7772 12.9708C44.1332 13.0955 43.8918 13.2182 43.828 13.3654ZM47.5691 19.8452C47.394 19.7488 46.5759 19.7868 46.0008 19.8554C44.9053 19.9844 43.7226 20.3646 43.4634 20.567C42.9922 20.9311 43.2064 21.5661 43.5544 21.8269C44.5305 22.5561 45.3862 23.045 46.2894 22.9261C46.8441 22.8533 47.333 21.9752 47.6794 21.1784C47.9166 20.6296 47.9166 20.0374 47.5691 19.8452ZM37.8703 14.2253C38.1792 13.9319 36.3314 13.5464 34.8976 14.5241C33.8401 15.2453 33.8063 16.7916 34.8188 17.6681C34.92 17.7549 35.0036 17.8165 35.0817 17.8668C35.3773 17.7276 35.7141 17.5868 36.1017 17.4609C36.7566 17.2484 37.3011 17.1386 37.7487 17.0802C37.9629 16.8409 38.2119 16.4195 38.1498 15.6565C38.0652 14.6215 37.2808 14.7859 37.8703 14.2253Z" fill="#632CA6"/>
</g>
</g>
<defs>
<clipPath id="clip0_28_1895">
<rect width="76" height="46" fill="white" transform="translate(0 0.279785)"/>
</clipPath>
<clipPath id="clip1_28_1895">
<rect width="42.8352" height="46" fill="white" transform="translate(16.5825 0.279785)"/>
</clipPath>
</defs>
</svg>
