<svg width="76" height="47" viewBox="0 0 76 47" fill="none" xmlns="http://www.w3.org/2000/svg">
<path d="M49.347 17.4581C49.3644 17.7097 49.3644 17.9613 49.3644 18.2152C49.3644 25.9516 43.4748 34.874 32.7056 34.874V34.8693C29.5242 34.8739 26.4086 33.9627 23.731 32.2446C24.1934 32.3001 24.6587 32.3283 25.1245 32.3293C27.7614 32.3314 30.3224 31.4469 32.396 29.8181C31.1742 29.795 29.9902 29.3908 29.0095 28.6618C28.0288 27.9328 27.3004 26.9156 26.9262 25.7523C27.8034 25.9215 28.7077 25.887 29.5695 25.6515C28.2446 25.384 27.053 24.6663 26.197 23.6203C25.341 22.5743 24.8732 21.2643 24.873 19.9127V19.8383C25.6873 20.2919 26.5986 20.5432 27.5302 20.571C26.2908 19.7427 25.4135 18.4732 25.0769 17.0209C24.7403 15.5687 24.9696 14.0427 25.7181 12.7535C27.188 14.5622 29.022 16.0416 31.1008 17.0954C33.1796 18.1492 35.4569 18.7539 37.7847 18.8702C37.4934 17.6151 37.6239 16.299 38.156 15.1255C38.688 13.952 39.592 12.9866 40.728 12.3786C41.864 11.7705 43.1687 11.5539 44.4403 11.7621C45.7118 11.9703 46.8793 12.5917 47.7621 13.5303C49.0733 13.2714 50.3307 12.7907 51.4802 12.1089C51.043 13.4645 50.1284 14.6152 48.9064 15.347C50.067 15.2102 51.2004 14.8995 52.2685 14.4253C51.4828 15.602 50.4935 16.629 49.347 17.4581Z" fill="#1D9BF0"/>
</svg>
