<svg width="76" height="47" viewBox="0 0 76 47" fill="none" xmlns="http://www.w3.org/2000/svg">
<g clip-path="url(#clip0_28_1957)">
<mask id="mask0_28_1957" style="mask-type:luminance" maskUnits="userSpaceOnUse" x="18" y="26" width="40" height="15">
<path d="M57.6886 26.835H18.3589V40.658H57.6886V26.835Z" fill="white"/>
</mask>
<g mask="url(#mask0_28_1957)">
<path fill-rule="evenodd" clip-rule="evenodd" d="M37.4835 40.6685L35.3072 40.1494V31.3867L37.4835 30.9724V40.6685ZM52.7067 38.6024C51.1283 38.6076 49.8487 37.3334 49.8382 35.7549C49.8382 35.7497 49.8382 35.7444 49.8382 35.7392C49.8382 34.187 51.1125 32.9127 52.7014 32.9127C54.2904 32.9127 55.5646 34.187 55.5646 35.7392C55.5699 37.3176 54.2904 38.5972 52.7172 38.6024C52.7172 38.6024 52.7119 38.6024 52.7067 38.6024ZM57.6412 35.7392C57.6412 38.4661 55.4335 40.6738 52.7067 40.6738C49.9798 40.6738 47.7721 38.4661 47.7721 35.7392C47.7721 33.049 49.9851 30.8413 52.7119 30.8413C55.4388 30.8413 57.6412 33.049 57.6412 35.7392ZM29.6438 40.1546L31.7833 40.6003V34.7009C31.7833 31.8692 29.5756 30.8728 28.0548 30.8728C27.0532 30.8728 26.2247 31.114 25.501 31.8377C24.7407 31.114 23.8439 30.8361 23.1203 30.8361C22.0505 30.8361 21.1538 31.2818 20.5298 32.0422V31.0406L18.3535 31.4549V40.1494L20.5298 40.5951V34.6327C20.5298 33.6678 21.222 33.0123 22.2865 33.0123C23.2881 33.0123 24.0117 33.6678 24.0117 34.6327V40.1546L26.1513 40.6003V34.6327C26.1513 33.6678 26.8749 33.0123 27.9133 33.0123C28.9148 33.0123 29.6385 33.6678 29.6385 34.6327L29.6438 40.1546ZM46.1465 30.8413L44.867 31.0144C42.4862 31.565 40.934 32.3254 40.934 34.9474V40.1546L43.1102 40.5689V35.2568C43.1102 34.0506 43.8024 33.4948 44.8722 33.2903L46.1517 33.0858L46.1465 30.8413ZM35.4121 27.2492C34.893 27.7789 34.893 28.6179 35.4121 29.1475C35.9418 29.6929 36.8175 29.6982 37.3576 29.1685C37.3629 29.1633 37.3734 29.1528 37.3786 29.1475C37.8977 28.6231 37.8977 27.7736 37.3786 27.2492C36.8227 26.7301 35.9627 26.7301 35.4121 27.2492Z" fill="#050038"/>
</g>
<path d="M31.112 6.604H41.1542C43.2728 6.604 44.9928 8.32402 44.9928 10.4426V20.4848C44.9928 22.6033 43.2728 24.3233 41.1542 24.3233H31.112C28.9935 24.3233 27.2734 22.6033 27.2734 20.4848V10.4426C27.2734 8.32402 28.9935 6.604 31.112 6.604Z" fill="#FFD02F"/>
<path d="M39.5864 8.81689H37.6409L39.2613 11.6644L35.6954 8.81689H33.7499L35.5329 12.2989L31.8044 8.81689H29.8589L31.8044 13.248L29.8589 22.1103H31.8044L35.5329 12.6135L33.7499 22.1103H35.6954L39.2613 11.9842L37.6409 22.1103H39.5864L43.1523 11.0298L39.5864 8.81689Z" fill="#050038"/>
</g>
<defs>
<clipPath id="clip0_28_1957">
<rect width="76" height="46" fill="white" transform="translate(0 0.279785)"/>
</clipPath>
</defs>
</svg>
